<svg width="91.534180" height="45.000000" viewBox="0 0 91.5342 45" fill="none" xmlns="http://www.w3.org/2000/svg" xmlns:xlink="http://www.w3.org/1999/xlink">
	<desc>
			Created with Pixso.
	</desc>
	<defs/>
	<path id="Euphoria" d="M4 27.61C3.66 27.61 3.36 27.64 3.1 27.69C-0.36 28.31 0.4 32.08 0.69 31.78C1.97 30.33 4.36 30.66 6.8 31C8.84 31.28 10.91 31.56 12.41 30.82C14.29 29.9 14.06 26.45 13.78 26.83C12.71 28.34 10.3 28.24 7.89 27.96C8.15 25.85 8.87 23.25 9.63 20.69C12.39 21.26 14.87 21.37 14.29 17.9C13.93 18.83 12.2 18.84 10.23 18.71C11.13 15.83 12 13.19 12.23 11.59C13.88 11.79 15.46 11.86 16.65 11.28C18.53 10.34 18.3 6.89 18.02 7.27C16.8 8.98 13.87 8.62 11.19 8.3C9.72 8.12 8.33 7.95 7.34 8.13C3.88 8.76 4.64 12.54 4.93 12.24C5.81 11.24 7.21 11.08 8.79 11.18C8.59 12.99 7.64 15.7 6.66 18.48C4.76 18.45 3.38 18.73 3.75 20.17C4.26 19.83 5.11 19.83 6.11 19.98C5.04 22.97 4.05 25.86 4 27.61ZM42.54 16.73C40.95 21.64 39.22 27 39.59 29.29C39.89 31.05 43.28 31.65 43.18 31.19C43.15 28.61 48.16 18.59 48.99 18.73C48.85 20.05 48.15 22.04 47.46 23.95C46.71 26.09 45.98 28.14 46.11 29.07C46.31 30.39 48.75 31.44 50.2 31.24C50.7 31.17 51.7 28.55 52.42 26.48C52.33 27.49 52.38 28.39 52.61 29.06C53.48 31.48 56.09 31.58 57.19 31.07C61.21 29.17 63.39 19.39 60.51 19.01C59.68 18.91 58.72 20.27 58.72 20.27C60.8 20.71 57.35 31.6 55.91 30.27C54.66 29.12 57.85 17.35 60.56 18.61C60.56 18.61 60.98 18.21 60.33 17.8C59.58 17.3 57.24 17.15 56.37 17.71C54.91 18.65 53.54 21.4 52.85 24.08C52.84 24.1 52.82 24.11 52.81 24.13C52.53 24.85 50.9 28.76 49.6 30C49.63 28.91 50.34 26.81 51.06 24.7C51.88 22.24 52.71 19.79 52.46 18.94C52.3 18.38 50.42 17.5 49.49 17.41C47.87 17.26 45.06 22.97 43.45 26.96C44.58 20.97 47.96 11.79 48.19 9.61C48.42 7.5 44.9 7.32 44.91 7.38C45.11 8.8 43.88 12.61 42.54 16.73ZM76.26 13.79C75.73 15.24 75.19 16.72 78.56 17.16C78.42 16.32 78.75 15.56 79.04 14.89C79.61 13.6 80.02 12.64 76.63 12.09C76.69 12.6 76.47 13.2 76.26 13.79ZM62.57 23.01C61.86 25.49 61.11 28.1 61.33 29.46C61.54 30.79 64.21 31.17 64.92 31.25C65 31.27 65.12 31.2 65.1 31.1C65.09 28.51 69.54 18.59 70.38 18.73C70.39 18.85 70.28 19.17 70.13 19.6C69.5 21.36 68.2 25.02 72.19 25.2C71.81 23.84 72.55 21.95 73.1 20.56C73.43 19.73 73.68 19.08 73.6 18.81C73.44 18.26 71.81 17.5 70.88 17.41C69.08 17.25 66.18 24.4 64.92 28.32C65.29 24.75 67.4 20.39 67.45 19.19C67.52 17.06 63.62 17.36 63.64 17.43C63.9 18.37 63.25 20.63 62.57 23.01ZM73.48 23C72.72 25.51 71.93 28.15 72.17 29.46C72.39 30.7 75.38 31.57 76.2 31.2C76.67 30.98 77.48 29.06 78.16 27.25C77.98 28.41 77.98 29.33 78.21 29.76C78.83 30.87 81.52 31.6 82.12 31.19C82.45 30.95 84.61 25.48 86.08 21.69C85.23 24.52 84.31 27.96 84.48 29.07C84.66 30.39 87.11 31.44 88.57 31.24C89.3 31.14 91.13 25.5 91.52 24.27C91.57 24.15 91.47 24.03 91.35 24.03C91.28 24.03 91.22 24.07 91.18 24.13C90.9 24.85 89.25 28.76 87.96 30C88.02 27.64 90.45 19.36 90.78 18.66C91.12 17.96 87.59 17.05 87.39 17.6L81.45 30.24C81.27 28.16 84.06 17.95 85.93 18.43L85.94 18.43C86.3 18.53 86.53 18.59 86.64 18.28C86.74 18 86.68 17.9 86.49 17.8C85.76 17.36 82.67 16.91 81.24 18.73C80.39 19.82 79.5 21.96 78.88 24.09C78.87 24.1 78.86 24.12 78.86 24.13C78.58 24.82 77.08 28.39 75.82 29.81C75.66 27.36 76.79 24.17 77.6 21.87C78.03 20.64 78.38 19.67 78.39 19.19C78.46 17.06 74.6 17.36 74.62 17.43C74.87 18.37 74.19 20.63 73.48 23ZM20.73 19.19C20.79 17.06 17.1 17.4 17.12 17.46C17.37 18.42 16.66 20.78 15.93 23.21C15.19 25.68 14.42 28.21 14.62 29.42C14.84 30.75 17.5 31.6 18.48 31.19C19.55 30.72 22.62 22.92 23.95 19.44C23.74 20.39 23.39 21.53 23.03 22.71C22.25 25.3 21.39 28.1 21.73 29.54C21.98 30.67 24.69 31.7 25.68 31.09C25.88 30.97 26.11 30.63 26.36 30.15C25.2 33.91 24.23 37.45 24.52 39.22C24.8 40.95 28.03 41.56 28.11 41.17C28.74 37.37 30.08 33.26 31.51 29.59C31.92 30.1 33.97 31.39 34.83 31.2C38.69 30.42 41.02 21.11 39.92 19.18C39.11 17.75 37.11 17.18 36.46 17.56C35.75 17.98 31.11 26.45 28.69 35.39C30.04 29.49 32.9 21.56 33.12 19.54C33.35 17.43 29.51 17.36 29.53 17.43C29.76 18.68 29.1 21.29 28.19 24.31C27.78 25.31 26.35 28.63 25.15 29.89C24.97 27.43 26.11 24.18 26.93 21.85C27.36 20.63 27.7 19.67 27.71 19.19C27.8 17.06 24.1 17.4 24.12 17.46C24.12 17.46 19.78 27.71 18.15 29.79C17.72 28.33 18.91 24.88 19.82 22.26C20.31 20.84 20.71 19.67 20.73 19.19ZM31.69 29.11C34.03 23.17 36.6 18.53 36.81 18.61C37.59 18.93 34.77 30.84 31.69 29.11Z" fill="#3C4242" fill-opacity="1.000000" fill-rule="evenodd"/>
	<path id="Vector" d="M0.2 33.62L22.61 33.62" stroke="#333333" stroke-opacity="1.000000" stroke-width="0.420324" stroke-linejoin="round" stroke-linecap="round"/>
	<path id="Vector" d="M32.19 33.62L91.24 33.62" stroke="#3C4242" stroke-opacity="1.000000" stroke-width="0.420324" stroke-linejoin="round" stroke-linecap="round"/>
	<path id="Vector" d="M40.16 41.26C39.99 41.26 39.8 41.19 39.59 41.06C39.37 40.93 39.14 40.76 38.9 40.55C38.66 40.34 38.42 40.11 38.19 39.86C37.96 39.61 37.74 39.36 37.54 39.11C37.35 38.86 37.18 38.64 37.05 38.45L35.97 40.78C35.91 40.89 35.83 40.98 35.72 41.02C35.61 41.07 35.49 41.1 35.36 41.11C35.23 41.12 35.1 41.12 34.98 41.12C35.07 40.98 35.17 40.83 35.27 40.65C35.37 40.47 35.49 40.25 35.63 40C35.77 39.75 35.93 39.44 36.11 39.08C36.3 38.72 36.52 38.29 36.78 37.78C37.03 37.28 37.33 36.69 37.68 36.01C37.71 35.97 37.74 35.92 37.77 35.85C37.81 35.78 37.83 35.71 37.83 35.65C37.83 35.6 37.81 35.55 37.77 35.52C37.74 35.49 37.66 35.47 37.56 35.47C37.38 35.47 37.21 35.52 37.04 35.62C36.88 35.71 36.73 35.84 36.6 35.98C36.47 36.13 36.37 36.29 36.29 36.44C36.22 36.6 36.18 36.74 36.18 36.87C36.18 36.96 36.2 37.05 36.24 37.12C35.99 37.12 35.82 37.08 35.72 37C35.62 36.92 35.57 36.82 35.57 36.7C35.57 36.53 35.64 36.36 35.79 36.19C35.94 36.02 36.13 35.87 36.36 35.73C36.6 35.59 36.84 35.47 37.1 35.39C37.35 35.31 37.59 35.26 37.79 35.26C38 35.26 38.13 35.3 38.2 35.38C38.27 35.45 38.31 35.53 38.31 35.62C38.31 35.68 38.3 35.73 38.28 35.78C38.26 35.84 38.24 35.89 38.22 35.94L37.28 37.96C37.39 37.86 37.52 37.77 37.69 37.68C37.86 37.6 38.04 37.5 38.24 37.4C38.57 37.22 38.93 37.01 39.31 36.77C39.7 36.53 40.06 36.28 40.41 36.02C40.76 35.76 41.05 35.51 41.28 35.26C41.32 35.29 41.34 35.35 41.36 35.42C41.37 35.49 41.38 35.55 41.38 35.59C41.38 35.74 41.29 35.91 41.1 36.1C40.91 36.28 40.66 36.47 40.36 36.66C40.05 36.86 39.72 37.05 39.35 37.24C38.99 37.43 38.63 37.61 38.28 37.78C37.93 37.95 37.61 38.09 37.33 38.22C37.55 38.47 37.77 38.71 37.98 38.94C38.19 39.17 38.42 39.39 38.67 39.61C38.92 39.83 39.21 40.05 39.54 40.28C39.88 40.5 40.28 40.75 40.76 41.01C40.7 41.08 40.62 41.13 40.51 41.18C40.4 41.23 40.28 41.26 40.16 41.26Z" fill="#3C4242" fill-opacity="1.000000" fill-rule="nonzero"/>
	<path id="Vector" d="M46.11 40.97C45.66 40.97 45.33 40.88 45.11 40.7C44.89 40.52 44.78 40.3 44.78 40.04C44.46 40.32 44.09 40.54 43.68 40.7C43.26 40.86 42.84 40.94 42.42 40.94C41.96 40.94 41.62 40.85 41.4 40.69C41.17 40.52 41.06 40.32 41.06 40.08C41.06 39.85 41.14 39.62 41.31 39.37C41.48 39.12 41.7 38.89 41.98 38.67C42.26 38.46 42.56 38.28 42.9 38.14C43.23 38.01 43.56 37.94 43.89 37.94C44.06 37.94 44.22 37.97 44.36 38.03C44.51 38.09 44.58 38.21 44.58 38.39C44.58 38.58 44.49 38.76 44.33 38.92C44.16 39.09 43.94 39.23 43.67 39.36C43.4 39.49 43.1 39.6 42.78 39.68C42.46 39.76 42.14 39.81 41.82 39.83C41.8 39.88 41.79 39.93 41.78 39.97C41.78 40.02 41.77 40.06 41.77 40.1C41.77 40.2 41.8 40.29 41.85 40.39C41.9 40.49 41.99 40.57 42.12 40.63C42.24 40.69 42.42 40.72 42.65 40.72C43.04 40.72 43.43 40.63 43.82 40.44C44.21 40.26 44.54 40.03 44.83 39.76C44.9 39.55 45.02 39.35 45.19 39.15C45.36 38.95 45.57 38.76 45.81 38.59C46.05 38.43 46.31 38.3 46.59 38.19C46.88 38.09 47.16 38.04 47.45 38.04C47.62 38.04 47.78 38.07 47.93 38.13C48.07 38.19 48.14 38.31 48.14 38.5C48.14 38.75 48.01 38.97 47.76 39.16C47.5 39.35 47.17 39.5 46.77 39.62C46.37 39.73 45.96 39.8 45.54 39.83C45.52 39.88 45.51 39.93 45.5 39.97C45.5 40.02 45.49 40.06 45.49 40.1C45.49 40.2 45.52 40.3 45.56 40.4C45.61 40.51 45.7 40.59 45.82 40.66C45.94 40.73 46.12 40.76 46.35 40.76C46.67 40.76 46.99 40.7 47.31 40.57C47.63 40.44 47.92 40.28 48.2 40.07C48.47 39.87 48.7 39.64 48.89 39.41L49.02 39.47C48.82 39.77 48.56 40.03 48.25 40.26C47.93 40.48 47.59 40.66 47.22 40.78C46.85 40.91 46.49 40.97 46.11 40.97ZM41.87 39.69C42.07 39.64 42.3 39.58 42.55 39.49C42.8 39.41 43.05 39.3 43.28 39.18C43.51 39.07 43.71 38.94 43.86 38.79C44.01 38.65 44.09 38.5 44.09 38.34C44.09 38.28 44.07 38.24 44.04 38.21C44.01 38.18 43.95 38.17 43.85 38.17C43.68 38.17 43.49 38.21 43.29 38.31C43.08 38.4 42.89 38.52 42.71 38.67C42.52 38.81 42.35 38.98 42.2 39.16C42.06 39.33 41.94 39.51 41.87 39.69ZM45.59 39.69C45.79 39.64 46.01 39.59 46.25 39.51C46.49 39.44 46.71 39.35 46.93 39.25C47.14 39.15 47.32 39.03 47.46 38.9C47.6 38.77 47.67 38.62 47.67 38.47C47.67 38.41 47.66 38.36 47.62 38.33C47.58 38.29 47.51 38.27 47.42 38.27C47.18 38.27 46.94 38.34 46.7 38.48C46.46 38.62 46.24 38.8 46.04 39.01C45.85 39.23 45.69 39.45 45.59 39.69Z" fill="#3C4242" fill-opacity="1.000000" fill-rule="nonzero"/>
	<path id="Vector" d="M47.95 42.69C47.89 42.69 47.84 42.67 47.78 42.63C47.72 42.58 47.68 42.54 47.65 42.49C47.62 42.45 47.61 42.42 47.61 42.41C47.71 42.17 47.81 41.95 47.91 41.76C48.01 41.57 48.11 41.37 48.21 41.17C48.31 40.97 48.41 40.74 48.51 40.47C48.61 40.2 48.71 39.86 48.81 39.46C48.91 39.06 49.02 38.56 49.12 37.97C49.13 37.92 49.14 37.89 49.17 37.87C49.19 37.85 49.24 37.84 49.33 37.84C49.53 37.84 49.66 37.88 49.75 37.95C49.83 38.02 49.87 38.1 49.87 38.18C49.87 38.25 49.85 38.37 49.8 38.55C49.76 38.73 49.69 38.94 49.61 39.18C49.74 39.02 49.9 38.85 50.09 38.69C50.27 38.52 50.49 38.38 50.74 38.26C50.98 38.15 51.25 38.09 51.54 38.09C51.87 38.09 52.14 38.17 52.35 38.33C52.56 38.48 52.66 38.69 52.66 38.94C52.66 39.13 52.6 39.34 52.47 39.55C52.34 39.77 52.16 39.97 51.92 40.16C51.69 40.35 51.41 40.51 51.09 40.62C50.77 40.74 50.42 40.8 50.04 40.8C49.84 40.8 49.69 40.79 49.57 40.76C49.45 40.73 49.39 40.7 49.39 40.67C49.39 40.65 49.42 40.64 49.47 40.64C49.53 40.63 49.59 40.63 49.67 40.63C49.97 40.63 50.25 40.58 50.52 40.49C50.79 40.39 51.03 40.26 51.25 40.1C51.47 39.95 51.63 39.77 51.76 39.58C51.88 39.38 51.94 39.19 51.94 39.01C51.94 38.85 51.89 38.71 51.79 38.6C51.69 38.49 51.53 38.43 51.31 38.43C51.11 38.43 50.92 38.47 50.73 38.56C50.54 38.64 50.36 38.74 50.2 38.87C50.03 38.99 49.88 39.12 49.75 39.26C49.62 39.4 49.52 39.52 49.46 39.63C49.32 40 49.19 40.36 49.06 40.7C48.92 41.05 48.79 41.36 48.67 41.64C48.55 41.92 48.44 42.15 48.34 42.32C48.24 42.5 48.15 42.61 48.09 42.65C48.05 42.68 48 42.69 47.95 42.69Z" fill="#3C4242" fill-opacity="1.000000" fill-rule="nonzero"/>
	<path id="Vector" d="M56.71 40.8C56.42 40.8 56.2 40.74 56.06 40.62C55.92 40.5 55.85 40.35 55.85 40.18C55.85 40.07 55.88 39.92 55.94 39.75C56.01 39.58 56.09 39.39 56.19 39.2C56.3 39.01 56.42 38.83 56.56 38.66C56.69 38.5 56.84 38.36 57 38.25C57.15 38.15 57.3 38.09 57.45 38.09C57.52 38.09 57.58 38.11 57.63 38.13C57.67 38.16 57.7 38.2 57.7 38.26C57.7 38.31 57.64 38.41 57.53 38.55C57.41 38.68 57.28 38.83 57.12 39.01C56.96 39.18 56.83 39.36 56.71 39.55C56.6 39.74 56.54 39.92 56.54 40.1C56.54 40.27 56.58 40.39 56.67 40.45C56.76 40.51 56.9 40.54 57.09 40.54C57.34 40.54 57.61 40.46 57.89 40.29C58.18 40.12 58.48 39.83 58.8 39.41L58.9 39.48C58.69 39.91 58.38 40.23 57.97 40.46C57.57 40.69 57.14 40.8 56.71 40.8ZM58.04 37.4C57.92 37.4 57.82 37.38 57.73 37.34C57.63 37.3 57.59 37.24 57.59 37.16C57.59 37.05 57.68 36.96 57.86 36.89C58.04 36.81 58.22 36.77 58.4 36.77C58.51 36.77 58.6 36.79 58.67 36.82C58.73 36.86 58.77 36.92 58.77 37C58.77 37.1 58.69 37.19 58.54 37.27C58.39 37.36 58.22 37.4 58.04 37.4Z" fill="#3C4242" fill-opacity="1.000000" fill-rule="nonzero"/>
	<path id="Vector" d="M59.53 40.95C59.22 40.95 58.97 40.89 58.8 40.77C58.63 40.64 58.54 40.46 58.54 40.22C58.54 40 58.61 39.73 58.73 39.41C58.85 39.09 59 38.76 59.19 38.43C59.12 38.42 59.05 38.41 58.98 38.4C58.91 38.39 58.85 38.38 58.79 38.37L58.79 38.23C58.85 38.24 58.92 38.24 59 38.25C59.08 38.25 59.18 38.26 59.28 38.26C59.43 38 59.6 37.74 59.78 37.49C59.96 37.24 60.13 37.02 60.31 36.82C60.48 36.62 60.65 36.47 60.81 36.35C60.97 36.24 61.11 36.18 61.22 36.18C61.28 36.18 61.33 36.19 61.38 36.22C61.43 36.25 61.45 36.29 61.45 36.34C61.45 36.42 61.37 36.56 61.22 36.75C61.06 36.94 60.87 37.17 60.64 37.43C60.41 37.69 60.18 37.98 59.97 38.29C60.04 38.29 60.1 38.29 60.18 38.29C60.25 38.29 60.31 38.29 60.38 38.29C60.63 38.29 60.88 38.28 61.16 38.28C61.43 38.27 61.7 38.26 61.97 38.24L61.97 38.38C61.57 38.41 61.2 38.43 60.88 38.44C60.55 38.46 60.27 38.46 60.01 38.46C59.98 38.46 59.96 38.46 59.93 38.46C59.9 38.46 59.88 38.46 59.85 38.46C59.68 38.73 59.53 39 59.41 39.27C59.29 39.55 59.23 39.82 59.23 40.08C59.23 40.3 59.28 40.45 59.38 40.54C59.48 40.63 59.63 40.68 59.86 40.68C60.24 40.68 60.62 40.56 60.99 40.34C61.37 40.11 61.69 39.8 61.97 39.41L62.12 39.48C61.94 39.76 61.72 40.01 61.45 40.23C61.17 40.45 60.87 40.63 60.55 40.76C60.22 40.89 59.88 40.95 59.53 40.95Z" fill="#3C4242" fill-opacity="1.000000" fill-rule="nonzero"/>
	<path id="Vector" d="M65.85 41.03C65.49 41.03 65.2 40.95 64.96 40.79C64.72 40.63 64.6 40.39 64.6 40.08C64.6 39.83 64.68 39.59 64.82 39.35C64.96 39.12 65.16 38.91 65.39 38.72C65.63 38.53 65.89 38.38 66.18 38.27C66.47 38.16 66.76 38.1 67.04 38.1C67.35 38.1 67.56 38.16 67.67 38.28C67.78 38.4 67.83 38.52 67.83 38.65C67.83 38.79 67.78 38.92 67.68 39.03C67.58 39.14 67.45 39.19 67.28 39.19C67.15 39.19 67.04 39.16 66.95 39.08C67.06 39.04 67.16 38.96 67.24 38.84C67.32 38.72 67.37 38.6 67.37 38.49C67.37 38.44 67.35 38.39 67.32 38.36C67.28 38.32 67.22 38.31 67.12 38.31C66.92 38.31 66.71 38.37 66.5 38.49C66.29 38.61 66.09 38.76 65.91 38.95C65.73 39.13 65.58 39.33 65.47 39.54C65.35 39.75 65.29 39.94 65.29 40.13C65.29 40.28 65.35 40.42 65.46 40.55C65.57 40.68 65.79 40.74 66.11 40.74C66.4 40.74 66.7 40.69 67 40.58C67.3 40.47 67.58 40.31 67.84 40.11C68.1 39.91 68.31 39.67 68.47 39.4L68.61 39.47C68.44 39.77 68.21 40.04 67.91 40.27C67.61 40.51 67.29 40.69 66.93 40.82C66.57 40.96 66.21 41.03 65.85 41.03Z" fill="#3C4242" fill-opacity="1.000000" fill-rule="nonzero"/>
	<path id="Vector" d="M69.18 40.83C68.86 40.83 68.63 40.76 68.5 40.61C68.36 40.47 68.29 40.29 68.29 40.07C68.29 39.83 68.36 39.55 68.49 39.22C68.62 38.9 68.8 38.55 69.02 38.19C69.24 37.83 69.48 37.48 69.74 37.13C70 36.79 70.26 36.47 70.52 36.19C70.78 35.91 71.02 35.68 71.24 35.52C71.45 35.35 71.63 35.26 71.75 35.26C71.83 35.26 71.9 35.29 71.95 35.36C72.01 35.42 72.05 35.49 72.08 35.58C72.11 35.67 72.12 35.74 72.12 35.81C72.12 35.95 72.07 36.12 71.97 36.34C71.87 36.55 71.73 36.79 71.55 37.06C71.37 37.32 71.15 37.59 70.9 37.86C70.65 38.13 70.38 38.39 70.09 38.63C69.79 38.88 69.49 39.09 69.16 39.27C69.11 39.41 69.08 39.54 69.05 39.66C69.03 39.79 69.01 39.91 69.01 40.02C69.01 40.22 69.05 40.36 69.14 40.45C69.22 40.55 69.34 40.6 69.5 40.6C69.7 40.6 69.9 40.54 70.1 40.42C70.3 40.3 70.48 40.15 70.66 39.97C70.83 39.79 70.98 39.6 71.11 39.41L71.27 39.47C70.98 39.89 70.65 40.22 70.3 40.47C69.96 40.71 69.58 40.83 69.18 40.83ZM69.26 39.02C69.52 38.85 69.77 38.65 70.02 38.42C70.26 38.2 70.49 37.96 70.7 37.72C70.91 37.48 71.1 37.24 71.26 37.02C71.43 36.79 71.55 36.59 71.64 36.4C71.73 36.22 71.78 36.08 71.78 35.99C71.78 35.94 71.77 35.9 71.75 35.89C71.73 35.87 71.71 35.87 71.7 35.87C71.64 35.87 71.54 35.93 71.39 36.06C71.25 36.18 71.08 36.35 70.89 36.56C70.69 36.78 70.5 37.02 70.29 37.29C70.09 37.56 69.9 37.85 69.72 38.15C69.54 38.44 69.38 38.73 69.26 39.02Z" fill="#3C4242" fill-opacity="1.000000" fill-rule="nonzero"/>
	<path id="Vector" d="M71.42 40.96C71.19 40.96 70.99 40.91 70.83 40.81C70.68 40.71 70.6 40.55 70.6 40.34C70.6 40.16 70.65 39.97 70.77 39.77C70.89 39.56 71.06 39.36 71.26 39.16C71.47 38.96 71.71 38.78 71.97 38.61C72.23 38.44 72.51 38.31 72.81 38.21C73.1 38.11 73.39 38.06 73.68 38.06C73.97 38.06 74.21 38.11 74.4 38.22C74.6 38.32 74.69 38.45 74.69 38.62C74.69 38.74 74.64 38.83 74.54 38.87C74.44 38.92 74.31 38.94 74.15 38.94C74.16 38.9 74.18 38.86 74.19 38.81C74.2 38.76 74.2 38.72 74.2 38.68C74.2 38.57 74.16 38.47 74.08 38.39C74 38.31 73.86 38.27 73.66 38.27C73.45 38.27 73.24 38.31 73.02 38.41C72.81 38.51 72.6 38.63 72.4 38.8C72.2 38.96 72.02 39.13 71.86 39.32C71.71 39.51 71.59 39.69 71.5 39.88C71.41 40.06 71.36 40.22 71.36 40.37C71.36 40.56 71.46 40.66 71.66 40.66C71.83 40.66 72.02 40.6 72.22 40.5C72.42 40.39 72.63 40.25 72.84 40.09C73.05 39.92 73.25 39.75 73.45 39.57C73.64 39.39 73.81 39.23 73.96 39.08C73.99 39.05 74.01 39.04 74.01 39.04C74.06 39.04 74.12 39.05 74.19 39.07C74.26 39.08 74.32 39.1 74.37 39.13C74.42 39.15 74.45 39.18 74.45 39.22C74.45 39.27 74.41 39.33 74.35 39.41C74.28 39.48 74.21 39.57 74.13 39.67C74.04 39.77 73.97 39.87 73.9 39.97C73.84 40.07 73.8 40.17 73.8 40.26C73.8 40.33 73.83 40.4 73.89 40.47C73.95 40.55 74.05 40.58 74.18 40.58C74.38 40.58 74.65 40.48 74.97 40.29C75.3 40.09 75.63 39.8 75.96 39.41L76.08 39.48C75.92 39.75 75.72 39.99 75.47 40.19C75.23 40.39 74.97 40.55 74.69 40.66C74.41 40.78 74.14 40.83 73.87 40.83C73.59 40.83 73.39 40.78 73.26 40.67C73.13 40.56 73.07 40.44 73.07 40.31C73.07 40.28 73.07 40.25 73.08 40.21C73.09 40.18 73.09 40.14 73.1 40.1C72.78 40.39 72.49 40.6 72.23 40.74C71.96 40.89 71.69 40.96 71.42 40.96Z" fill="#3C4242" fill-opacity="1.000000" fill-rule="nonzero"/>
	<path id="Vector" d="M76.91 40.99C76.56 40.99 76.29 40.94 76.08 40.84C75.88 40.74 75.73 40.61 75.65 40.46C75.56 40.31 75.52 40.16 75.52 40.02C75.52 39.87 75.55 39.75 75.61 39.67C75.67 39.6 75.74 39.54 75.82 39.5C75.91 39.46 75.99 39.43 76.07 39.41C76.15 39.39 76.2 39.37 76.23 39.35C76.45 39.18 76.66 39.01 76.84 38.84C77.03 38.66 77.19 38.47 77.33 38.27L77.33 38.18C77.33 38 77.38 37.87 77.47 37.79C77.57 37.72 77.66 37.68 77.77 37.68C77.83 37.68 77.87 37.69 77.9 37.71C77.93 37.73 77.95 37.75 77.95 37.77C77.95 37.8 77.93 37.84 77.91 37.89C77.89 37.95 77.88 38.02 77.88 38.1C77.88 38.26 77.93 38.44 78.02 38.63C78.12 38.82 78.22 39.02 78.31 39.23C78.41 39.44 78.46 39.66 78.46 39.89C78.46 39.95 78.45 40.02 78.44 40.08C78.43 40.14 78.41 40.2 78.39 40.25C78.65 40.22 78.89 40.15 79.13 40.02C79.36 39.89 79.58 39.69 79.79 39.41L79.89 39.49C79.75 39.76 79.54 39.97 79.26 40.11C78.98 40.25 78.67 40.34 78.33 40.37C78.22 40.59 78.03 40.74 77.77 40.84C77.52 40.94 77.23 40.99 76.91 40.99ZM76.93 40.73C77.02 40.73 77.14 40.71 77.29 40.67C77.44 40.63 77.55 40.53 77.63 40.37C77.32 40.33 77.05 40.24 76.81 40.12C76.56 40 76.38 39.87 76.26 39.75C76.1 39.76 76.02 39.84 76.02 40.01C76.02 40.19 76.1 40.35 76.26 40.5C76.42 40.65 76.64 40.73 76.93 40.73ZM77.69 40.25C77.7 40.2 77.72 40.15 77.72 40.09C77.73 40.04 77.73 39.97 77.73 39.9C77.73 39.66 77.69 39.43 77.61 39.2C77.52 38.97 77.45 38.76 77.39 38.55C77.22 38.74 77.04 38.92 76.85 39.09C76.66 39.26 76.48 39.41 76.31 39.52C76.42 39.68 76.59 39.83 76.83 39.96C77.06 40.1 77.35 40.2 77.69 40.25Z" fill="#3C4242" fill-opacity="1.000000" fill-rule="nonzero"/>
	<path id="Vector" d="M80.75 40.99C80.4 40.99 80.13 40.94 79.92 40.84C79.72 40.74 79.57 40.61 79.49 40.46C79.4 40.31 79.36 40.16 79.36 40.02C79.36 39.87 79.39 39.75 79.45 39.67C79.51 39.6 79.58 39.54 79.67 39.5C79.75 39.46 79.83 39.43 79.91 39.41C79.99 39.39 80.04 39.37 80.07 39.35C80.3 39.18 80.5 39.01 80.69 38.84C80.87 38.66 81.03 38.47 81.18 38.27L81.18 38.18C81.18 38 81.22 37.87 81.31 37.79C81.41 37.72 81.51 37.68 81.61 37.68C81.67 37.68 81.71 37.69 81.74 37.71C81.77 37.73 81.79 37.75 81.79 37.77C81.79 37.8 81.78 37.84 81.75 37.89C81.73 37.95 81.72 38.02 81.72 38.1C81.72 38.26 81.77 38.44 81.87 38.63C81.96 38.82 82.06 39.02 82.16 39.23C82.25 39.44 82.3 39.66 82.3 39.89C82.3 39.95 82.29 40.02 82.28 40.08C82.27 40.14 82.25 40.2 82.23 40.25C82.49 40.22 82.74 40.15 82.97 40.02C83.2 39.89 83.42 39.69 83.64 39.41L83.74 39.49C83.59 39.76 83.38 39.97 83.1 40.11C82.82 40.25 82.51 40.34 82.18 40.37C82.06 40.59 81.87 40.74 81.61 40.84C81.36 40.94 81.07 40.99 80.75 40.99ZM80.77 40.73C80.86 40.73 80.98 40.71 81.13 40.67C81.28 40.63 81.39 40.53 81.48 40.37C81.16 40.33 80.89 40.24 80.65 40.12C80.41 40 80.23 39.87 80.11 39.75C79.94 39.76 79.86 39.84 79.86 40.01C79.86 40.19 79.94 40.35 80.1 40.5C80.26 40.65 80.49 40.73 80.77 40.73ZM81.53 40.25C81.55 40.2 81.56 40.15 81.56 40.09C81.57 40.04 81.58 39.97 81.58 39.9C81.58 39.66 81.53 39.43 81.45 39.2C81.36 38.97 81.29 38.76 81.23 38.55C81.06 38.74 80.88 38.92 80.69 39.09C80.5 39.26 80.32 39.41 80.15 39.52C80.26 39.68 80.43 39.83 80.67 39.96C80.9 40.1 81.19 40.2 81.53 40.25Z" fill="#3C4242" fill-opacity="1.000000" fill-rule="nonzero"/>
	<path id="Vector" d="M83.91 42.69C83.72 42.69 83.56 42.66 83.41 42.59C83.27 42.52 83.2 42.43 83.2 42.3C83.2 42.14 83.26 42 83.38 41.87C83.5 41.75 83.66 41.64 83.86 41.53C84.06 41.43 84.29 41.33 84.55 41.23C84.81 41.14 85.08 41.05 85.36 40.95C85.47 40.77 85.57 40.57 85.68 40.34C85.79 40.12 85.89 39.87 85.99 39.59C85.75 39.85 85.5 40.07 85.22 40.26C84.95 40.44 84.67 40.54 84.36 40.54C84.22 40.54 84.08 40.52 83.94 40.47C83.81 40.43 83.69 40.37 83.6 40.28C83.52 40.19 83.47 40.07 83.47 39.94C83.47 39.8 83.51 39.64 83.58 39.45C83.65 39.27 83.73 39.09 83.84 38.92C83.94 38.75 84.05 38.6 84.16 38.49C84.27 38.37 84.37 38.32 84.45 38.32C84.48 38.32 84.54 38.32 84.61 38.34C84.69 38.35 84.76 38.38 84.84 38.4C84.91 38.43 84.94 38.46 84.94 38.49C84.87 38.55 84.8 38.64 84.72 38.76C84.64 38.88 84.56 39.01 84.48 39.16C84.4 39.31 84.34 39.45 84.28 39.59C84.23 39.72 84.21 39.84 84.21 39.94C84.21 40.03 84.24 40.1 84.3 40.16C84.35 40.21 84.46 40.24 84.61 40.24C84.75 40.24 84.91 40.19 85.08 40.1C85.25 40.01 85.43 39.89 85.6 39.75C85.78 39.61 85.94 39.45 86.09 39.29C86.11 39.23 86.13 39.18 86.15 39.12C86.17 39.07 86.19 39.01 86.2 38.95C86.22 38.88 86.28 38.8 86.36 38.71C86.45 38.62 86.58 38.57 86.77 38.57C86.8 38.57 86.84 38.57 86.88 38.57C86.92 38.58 86.96 38.58 87 38.59C87 38.67 86.97 38.82 86.9 39.03C86.82 39.25 86.72 39.5 86.59 39.79C86.46 40.07 86.31 40.37 86.13 40.67C86.48 40.58 86.82 40.43 87.16 40.23C87.49 40.02 87.76 39.75 87.97 39.41L88.11 39.48C88 39.72 87.83 39.93 87.61 40.1C87.38 40.28 87.13 40.43 86.84 40.56C86.56 40.68 86.28 40.79 86.01 40.87C85.82 41.19 85.61 41.49 85.38 41.76C85.15 42.04 84.92 42.26 84.67 42.43C84.42 42.6 84.16 42.69 83.91 42.69ZM83.85 42.45C83.96 42.45 84.15 42.35 84.41 42.16C84.67 41.96 84.96 41.62 85.25 41.13C84.95 41.24 84.67 41.35 84.41 41.45C84.15 41.56 83.94 41.67 83.78 41.8C83.63 41.92 83.55 42.07 83.55 42.23C83.55 42.27 83.57 42.32 83.62 42.37C83.66 42.42 83.74 42.45 83.85 42.45Z" fill="#3C4242" fill-opacity="1.000000" fill-rule="nonzero"/>
	<path id="Vector" d="M88.2 40.68C88.11 40.68 88.02 40.67 87.95 40.64C87.88 40.6 87.85 40.55 87.85 40.48C87.85 40.43 87.88 40.38 87.95 40.33C88.01 40.29 88.1 40.25 88.2 40.22C88.3 40.19 88.4 40.18 88.49 40.18C88.58 40.18 88.65 40.19 88.7 40.22C88.75 40.24 88.78 40.29 88.78 40.36C88.78 40.41 88.75 40.46 88.7 40.51C88.64 40.56 88.57 40.6 88.48 40.63C88.39 40.67 88.3 40.68 88.2 40.68Z" fill="#3C4242" fill-opacity="1.000000" fill-rule="nonzero"/>
</svg>
