<svg width="15.669922" height="15.669739" viewBox="0 0 15.6699 15.6697" fill="none" xmlns="http://www.w3.org/2000/svg" xmlns:xlink="http://www.w3.org/1999/xlink">
	<desc>
			Created with Pixso.
	</desc>
	<defs/>
	<path id="Icon" d="M5.15 13.01Q5.85 13.16 6.58 13.16Q7.31 13.16 8.01 13.01Q8.59 12.88 9.14 12.64Q9.7 12.41 10.2 12.08Q10.44 11.92 10.67 11.73L14.38 15.44C14.68 15.74 15.14 15.74 15.44 15.44C15.74 15.15 15.74 14.68 15.44 14.38L11.73 10.67Q11.92 10.44 12.08 10.2Q12.41 9.7 12.64 9.14Q12.88 8.59 13.01 8.01Q13.16 7.31 13.16 6.58Q13.16 5.85 13.01 5.15Q12.88 4.57 12.64 4.02Q12.41 3.46 12.08 2.96Q11.71 2.4 11.23 1.92Q10.75 1.44 10.2 1.08Q9.7 0.75 9.14 0.51Q8.59 0.28 8.01 0.15Q7.31 0 6.58 0Q5.85 0 5.15 0.15Q4.57 0.28 4.02 0.51Q3.46 0.75 2.96 1.08Q2.4 1.44 1.92 1.92Q1.44 2.4 1.08 2.96Q0.75 3.46 0.51 4.02Q0.28 4.57 0.15 5.15Q0 5.85 0 6.58Q0 7.31 0.15 8.01Q0.28 8.59 0.51 9.14Q0.75 9.7 1.08 10.2Q1.44 10.75 1.92 11.23Q2.4 11.71 2.96 12.08Q3.46 12.41 4.02 12.64Q4.57 12.88 5.15 13.01ZM7.71 11.54Q7.16 11.66 6.58 11.66Q6 11.66 5.44 11.54Q5.01 11.44 4.6 11.26Q4.18 11.08 3.8 10.84Q3.36 10.55 2.98 10.17Q2.61 9.8 2.32 9.36Q2.07 8.98 1.89 8.56Q1.72 8.14 1.62 7.71Q1.5 7.16 1.5 6.58Q1.5 6 1.62 5.44Q1.72 5.01 1.89 4.6Q2.07 4.18 2.32 3.8Q2.61 3.36 2.98 2.98Q3.36 2.61 3.8 2.32Q4.18 2.07 4.6 1.89Q5.01 1.72 5.44 1.62Q6 1.5 6.58 1.5Q7.16 1.5 7.71 1.62Q8.14 1.72 8.56 1.89Q8.98 2.07 9.36 2.32Q9.8 2.61 10.17 2.98Q10.55 3.36 10.84 3.8Q11.08 4.18 11.26 4.6Q11.44 5.01 11.54 5.44Q11.66 6 11.66 6.58Q11.66 7.16 11.54 7.71Q11.44 8.14 11.26 8.56Q11.08 8.98 10.84 9.36Q10.55 9.8 10.17 10.17Q9.8 10.55 9.36 10.84Q8.98 11.08 8.56 11.26Q8.14 11.44 7.71 11.54Z" fill="#807D7E" fill-opacity="1.000000" fill-rule="evenodd"/>
</svg>
