<svg width="25" height="23" viewBox="0 0 25 23" fill="none" xmlns="http://www.w3.org/2000/svg">
<path d="M10.8394 0.0284921C4.86223 0.0284921 0 4.50174 0 10.0007C0 15.4997 4.86223 19.9729 10.8394 19.9729C12.6666 19.9729 14.4628 19.574 15.9803 18.8048C16.1019 18.9393 16.2367 19.0633 16.3829 19.1752L19.4799 22.0244C19.7659 22.3204 20.1146 22.5595 20.5046 22.7271C20.8947 22.8946 21.3179 22.9871 21.7481 22.9987C22.1784 23.0104 22.6068 22.941 23.0069 22.7949C23.407 22.6487 23.7704 22.4288 24.0748 22.1488C24.3792 21.8688 24.6181 21.5344 24.777 21.1663C24.9359 20.7982 25.0113 20.4042 24.9986 20.0083C24.986 19.6124 24.8855 19.2231 24.7034 18.8643C24.5212 18.5054 24.2613 18.1846 23.9395 17.9215L20.8426 15.0723C20.6917 14.9335 20.5256 14.8093 20.347 14.7019C21.1832 13.3058 21.7097 11.6817 21.7097 9.97222C21.7097 4.47325 16.8475 0 10.8703 0L10.8394 0.0284921ZM10.8394 2.8777C15.1441 2.8777 18.5818 6.04032 18.5818 10.0007C18.5818 11.8812 17.8385 13.6192 16.5378 14.9013C16.5068 14.9298 16.4758 14.9583 16.4449 14.9868C16.2986 15.0986 16.1638 15.2226 16.0423 15.3572C14.6796 16.4969 12.8214 17.1522 10.8084 17.1522C6.50362 17.1522 3.06599 13.9896 3.06599 10.0292C3.06599 6.06881 6.50362 2.90619 10.8084 2.90619L10.8394 2.8777Z" fill="#F7F5F5"/>
</svg>
